# xmcd
#
# Track frame offsets:
#	150
#	13771
#	30994
#	46115
#	63295
#	81126
#	98658
#	114810
#	129997
#	149298
#	164606
#	178855
#	197728
#	216898
#	237755
#
# Disc length: 3393 seconds
#
# Revision: 1
# Processed by: cddbd v1.5.1PL2 Copyright (c) Steve Scherf et al.
# Submitted via: audiograbber 1.83.01
#
DISCID=bf0d3f0f
DTITLE=KSENIJA PAJCIN - Sigurna
DYEAR=2004
DGENRE=Pop/Funk
TTITLE0=Neven
TTITLE1=Magije
TTITLE2=Skorpija
TTITLE3=Najbolje za oboje
TTITLE4=Slatko i gorko
TTITLE5=Zid
TTITLE6=Super nova
TTITLE7=Mozda se ne probudim
TTITLE8=Sigurna
TTITLE9=Ko jos moze (RMX)
TTITLE10=Divan dan
TTITLE11=Svidja mi se on
TTITLE12=Nova zena
TTITLE13=Sexualnost
TTITLE14=Korak po korak
EXTD=
EXTT0=
EXTT1=
EXTT2=
EXTT3=
EXTT4=
EXTT5=
EXTT6=
EXTT7=
EXTT8=
EXTT9=
EXTT10=
EXTT11=
EXTT12=
EXTT13=
EXTT14=
PLAYORDER=
